<svg xmlns="http://www.w3.org/2000/svg" viewBox="0 0 64 64"><title/><g id="_15-Sope" data-name="15-Sope"><rect style="fill:#d4d4d4" width="4" height="4" x="14" y="4"/><path d="M1,30A126.227,126.227,0,0,0,2.1,44H29.9A126.227,126.227,0,0,0,31,30Z" style="fill:#055d8d"/><polygon points="21 8 21 16 11 16 11 8 14 8 18 8 21 8" style="fill:#e3e3e3"/><polygon points="11 1 23 1 27 3 27 6 23 4 18 4 14 4 11 4 11 1" style="fill:#34c1ad"/><path d="M2.1,44H29.9c-.75,6.08-1.71,12.09-2.32,15.67A4,4,0,0,1,23.63,63H8.37a4,4,0,0,1-3.95-3.33C3.81,56.09,2.85,50.08,2.1,44Z" style="fill:#34c1ad"/><path d="M21,16s10,3,10,14H1C1,19,11,16,11,16Z" style="fill:#34c1ad"/><path d="M7,30H1A126.227,126.227,0,0,0,2.1,44h6A126.227,126.227,0,0,1,7,30Z" style="fill:#072c58"/><path d="M10.42,55.67C9.81,52.09,8.85,50.08,8.1,44h-6c.75,6.08,1.71,12.09,2.32,15.67A4,4,0,0,0,8.37,63H23.63a4,4,0,0,0,3.95-3.33c.037-.214.074-.439.113-.67H14.37A4,4,0,0,1,10.42,55.67Z" style="fill:#13969d"/><path d="M17,16H11S1,19,1,30H7C7,19,17,16,17,16Z" style="fill:#13969d"/><path d="M16,13a2,2,0,0,1-2-2V8H11v8H21V13Z" style="fill:#d4d4d4"/><polygon points="18 4 14 4 14 8 16 8 16 6 18 6 18 4" style="fill:#bfbfbf"/><polygon points="14 3 14 1 11 1 11 4 14 4 18 4 23 4 27 6 27 5 23 3 14 3" style="fill:#21abab"/><path d="M11,21V17.589A13,13,0,0,0,2.5,30,122.345,122.345,0,0,0,3.589,43.818c.824,6.68,1.89,13.135,2.309,15.6A2.5,2.5,0,0,0,8.37,61.5H23.63A2.5,2.5,0,0,0,26.1,59.417c.419-2.464,1.485-8.919,2.309-15.6A122.283,122.283,0,0,0,29.5,30,13.111,13.111,0,0,0,21,17.593V21Z" style="fill:none"/><path d="M5.9,59.418A2.5,2.5,0,0,0,8.37,61.5H23.63A2.5,2.5,0,0,0,26.1,59.417c.416-2.441,1.465-8.8,2.286-15.417H3.612C4.433,50.615,5.482,56.976,5.9,59.418Z" style="fill:none"/><path d="M21,16v1.593A13.111,13.111,0,0,1,29.5,30H31C31,19,21,16,21,16Z" style="fill:#e3e3e3"/><path d="M11,17.589V16S1,19,1,30H2.5A13,13,0,0,1,11,17.589Z" style="fill:#e3e3e3"/><path d="M26.1,59.417A2.5,2.5,0,0,1,23.63,61.5H8.37A2.5,2.5,0,0,1,5.9,59.418C5.482,56.976,4.433,50.615,3.612,44H2.1c.75,6.08,1.71,12.09,2.32,15.67A4,4,0,0,0,8.37,63H23.63a4,4,0,0,0,3.95-3.33c.61-3.58,1.57-9.59,2.32-15.67H28.388C27.567,50.616,26.518,56.976,26.1,59.417Z" style="fill:#e3e3e3"/><path d="M24.833,28.965c1.426.329,2.219-1.717,2.164-3.019a4.748,4.748,0,0,0-2.535-4.428,5.675,5.675,0,0,0-3.589-.4,2.625,2.625,0,0,0-1.379.614,1.545,1.545,0,0,0-.43,1.534,2.109,2.109,0,0,0,.558.776L23.7,28.167A2.578,2.578,0,0,0,24.833,28.965Z" style="fill:#fff"/><circle cx="22.5" cy="55.5" r="1.5" style="fill:#3ad9c2"/><circle cx="23.5" cy="49.5" r="1.5" style="fill:#3ad9c2"/><circle cx="20" cy="52" r="1" style="fill:#3ad9c2"/><circle cx="10" cy="27" r="1" style="fill:#3ad9c2"/><circle cx="12" cy="23" r="1" style="fill:#3ad9c2"/><path d="M5.5,34v3a.5.5,0,0,0,.5.5H8.5v2H6v1H9a.5.5,0,0,0,.5-.5V37a.5.5,0,0,0-.5-.5H6.5v-2H9v-1H6A.5.5,0,0,0,5.5,34Z" style="fill:#e3e3e3"/><path d="M15,33.5H12a.5.5,0,0,0-.5.5v6a.5.5,0,0,0,.5.5h3a.5.5,0,0,0,.5-.5V34A.5.5,0,0,0,15,33.5Zm-.5,6h-2v-5h2Z" style="fill:#e3e3e3"/><path d="M21,33.5H18a.5.5,0,0,0-.5.5v7h1V38.5h2V41h1V34A.5.5,0,0,0,21,33.5Zm-2.5,4v-3h2v3Z" style="fill:#e3e3e3"/><path d="M27,33.5H24a.5.5,0,0,0-.5.5v7h1V37.5H27a.5.5,0,0,0,.5-.5V34A.5.5,0,0,0,27,33.5Zm-.5,3h-2v-2h2Z" style="fill:#e3e3e3"/><rect style="fill:#d4d4d4" width="6" height="4" x="46" y="12"/><polygon points="43 9 55 9 59 11 59 14 55 12 52 12 46 12 43 12 43 9" style="fill:#81d2f5"/><polygon points="54 16 54 24 44 24 44 16 46 16 52 16 54 16" style="fill:#e3e3e3"/><polygon points="55 40 55 46 52 46 52 49 46 49 46 46 43 46 43 40 46 40 46 37 49 37 52 37 52 40 55 40" style="fill:#fff"/><path d="M63,50v4a9,9,0,0,1-9,9H44a9,9,0,0,1-9-9V50s4.67,2,14,2c1.17,0,2.26-.03,3.28-.09C59.42,51.53,63,50,63,50Z" style="fill:#81d2f5"/><path d="M54,24a18.263,18.263,0,0,1,6.78,8.1C59.85,32.5,55.92,34,49,34s-10.85-1.5-11.78-1.9A18.263,18.263,0,0,1,44,24Z" style="fill:#81d2f5"/><polygon points="52 12 46 12 46 16 48 16 48 14 52 14 52 12" style="fill:#bfbfbf"/><path d="M49,21a2,2,0,0,1-2-2V16H44v8H54V21Z" style="fill:#d4d4d4"/><polygon points="45 11 45 9 43 9 43 12 46 12 52 12 55 12 59 14 59 13 55 11 45 11" style="fill:#66b9de"/><path d="M60.78,32.1C59.85,32.5,55.92,34,49,34s-10.85-1.5-11.78-1.9A25.78,25.78,0,0,0,35,43v7s4.67,2,14,2c1.17,0,2.26-.03,3.28-.09C59.42,51.53,63,50,63,50V43A25.78,25.78,0,0,0,60.78,32.1ZM55,46H52v3H46V46H43V40h3V37h6v3h3Z" style="fill:#055d8d"/><path d="M41,50V43a26.53,26.53,0,0,1,1.63-9.473A23.284,23.284,0,0,1,37.22,32.1,25.78,25.78,0,0,0,35,43v7a27.274,27.274,0,0,0,6.13,1.464A8.935,8.935,0,0,1,41,50Z" style="fill:#072c58"/><path d="M55,59H50a8.995,8.995,0,0,1-8.87-7.536A27.274,27.274,0,0,1,35,50v4a9,9,0,0,0,9,9H54a8.987,8.987,0,0,0,7.571-4.146A9.034,9.034,0,0,1,60,59Z" style="fill:#66b9de"/><path d="M43.22,32.1A18.263,18.263,0,0,1,50,24H44a18.263,18.263,0,0,0-6.78,8.1,23.284,23.284,0,0,0,5.41,1.427C42.818,33.032,43.012,32.551,43.22,32.1Z" style="fill:#66b9de"/><polygon points="49 37 46 37 46 40 43 40 43 46 46 46 46 49 52 49 52 46 55 46 55 40 52 40 52 37 49 37" style="fill:none"/><path d="M49,52a45.682,45.682,0,0,1-12.5-1.5V54A7.508,7.508,0,0,0,44,61.5H54A7.508,7.508,0,0,0,61.5,54V50.5a41.724,41.724,0,0,1-9.22,1.409C51.26,51.97,50.17,52,49,52Z" style="fill:none"/><path d="M53.572,25.5H44.433a17.658,17.658,0,0,0-5.794,7.115A34.7,34.7,0,0,0,49,34a34.709,34.709,0,0,0,10.361-1.385A17.434,17.434,0,0,0,53.572,25.5Z" style="fill:none"/><path d="M61.5,54A7.508,7.508,0,0,1,54,61.5H44A7.508,7.508,0,0,1,36.5,54V50.5A14.852,14.852,0,0,1,35,50v4a9,9,0,0,0,9,9H54a9,9,0,0,0,9-9V50a14.28,14.28,0,0,1-1.5.5Z" style="fill:#e3e3e3"/><path d="M44.433,25.5h9.139a17.434,17.434,0,0,1,5.789,7.115c.689-.217,1.168-.407,1.419-.515A18.263,18.263,0,0,0,54,24H44a18.263,18.263,0,0,0-6.78,8.1c.251.108.73.3,1.419.515A17.658,17.658,0,0,1,44.433,25.5Z" style="fill:#e3e3e3"/><path d="M55.375,32.973c1.069.247,1.664-1.287,1.623-2.264a3.563,3.563,0,0,0-1.9-3.321,4.264,4.264,0,0,0-2.691-.3,1.978,1.978,0,0,0-1.034.461,1.158,1.158,0,0,0-.323,1.151,1.591,1.591,0,0,0,.418.581l3.055,3.091A1.925,1.925,0,0,0,55.375,32.973Z" style="fill:#fff"/></g></svg>