<svg xmlns="http://www.w3.org/2000/svg" viewBox="0 0 64 64"><title/><g id="_05-Wash_hands" data-name="05-Wash hands"><path d="M17,30l.04.06-6.95,5.06L10,35H7.5a2.5,2.5,0,0,1,0-5H17Z" style="fill:#f2b59d"/><path d="M24,25l-6.96,5.06L17,30H10.5a2.5,2.5,0,0,1,0-5Z" style="fill:#f2b59d"/><path d="M55,20v.4l-11.07.55L40.4,18.54a4.014,4.014,0,0,1-.55-5.52,2.667,2.667,0,0,1,3.55-.59Z" style="fill:#f2b59d"/><path d="M63,38v6H61l-.59.44A12.791,12.791,0,0,1,52.74,47h-.47a12.353,12.353,0,0,1-2.51-.25l-8.57-1.71a17.787,17.787,0,0,0,5.32-4.72L49,37Z" style="fill:#f2b59d"/><path d="M55,20.4l-11.07.55L43,21l-9-4-7-1H13a2.006,2.006,0,0,0-2,2,3.995,3.995,0,0,0,4,4h9v3l-6.96,5.06-6.95,5.06L3.36,40.01A3.313,3.313,0,0,0,5.31,46h.57a3.1,3.1,0,0,0,1.13-.21l.5-.349a1.593,1.593,0,0,1-.5.349L2.28,49.11A2.988,2.988,0,0,0,1,51.56v.45A2.992,2.992,0,0,0,3.99,55a2.949,2.949,0,0,0,1.81-.61l.52-.4.01.01A2.757,2.757,0,0,0,6,55.3,2.7,2.7,0,0,0,8.7,58h.41a2.629,2.629,0,0,0,1.6-.53l5.52-4.07A2.552,2.552,0,0,0,18.55,57h.65a2.619,2.619,0,0,0,1.46-.45L30.68,49.6a18.023,18.023,0,0,1,5.02-2.41l1.69-.51a17.592,17.592,0,0,0,3.8-1.64,17.787,17.787,0,0,0,5.32-4.72L49,37l14,1V20Z" style="fill:#f2c4b2"/><path d="M26,38.211a1.592,1.592,0,0,0-2.556-1.268L1.521,53.6a3.006,3.006,0,0,0,1.6,1.253c.059.018.117.04.177.055a3.009,3.009,0,0,0,.318.05,2.958,2.958,0,0,0,.3.031c.095,0,.19,0,.284-.01.071,0,.143-.007.213-.017a2.935,2.935,0,0,0,.3-.063c.065-.016.131-.028.194-.048a2.959,2.959,0,0,0,.31-.126c.051-.023.105-.041.154-.067A2.925,2.925,0,0,0,5.8,54.39l.52-.4L25.372,39.478A1.591,1.591,0,0,0,26,38.211Z" style="fill:#f2b59d"/><path d="M29,43.193a1.6,1.6,0,0,0-2.554-1.277L6.535,56.849a2.887,2.887,0,0,0,.541.556A3.043,3.043,0,0,0,8.936,58H9.11a2.629,2.629,0,0,0,1.6-.53l5.52-4.07,12.12-8.921A1.6,1.6,0,0,0,29,43.193Z" style="fill:#f2b59d"/><path d="M23.366,33.485A1.615,1.615,0,0,0,21.425,30.9L2.721,44.728a3.3,3.3,0,0,0,.249.3A3.3,3.3,0,0,0,5.31,46h.57a3.1,3.1,0,0,0,1.13-.21l3.08-2.15Z" style="fill:#f2b59d"/><path d="M59,20.2V30a4,4,0,0,1-4,4H47.953a1.988,1.988,0,0,0-1.545.731C45.184,36.229,42.3,39.7,40,42c-3,3-8,4-8,4L17.083,56.53A2.5,2.5,0,0,0,18.55,57h.65a2.619,2.619,0,0,0,1.46-.45L30.68,49.6a18.023,18.023,0,0,1,5.02-2.41l1.69-.51a17.592,17.592,0,0,0,3.8-1.64,17.787,17.787,0,0,0,5.32-4.72L49,37l14,1V20Z" style="fill:#f2b59d"/><path d="M28,19H16a3,3,0,0,1-3-3,2.006,2.006,0,0,0-2,2,3.995,3.995,0,0,0,4,4h9v3l6-4A2,2,0,0,0,28,19Z" style="fill:#f2b59d"/><path d="M49,37l-2.49,3.32a17.787,17.787,0,0,1-5.32,4.72l5.555,1.108c1.689-.9,4.115-2.408,4.955-4.031A1.953,1.953,0,0,1,53.412,41H59.13A1.87,1.87,0,0,1,61,42.87V44h2V38Z" style="fill:#ed9776"/><path d="M20.2,25l-3.678,2.627A2,2,0,0,1,15.359,28H10a2,2,0,0,1-1.862-1.284A2.455,2.455,0,0,0,8,27.5,2.492,2.492,0,0,0,10.5,30H17l.04.06L24,25Z" style="fill:#ed9776"/><path d="M17,30H14.5l-4.248,2.832A1,1,0,0,1,9.7,33H6a.987.987,0,0,1-.966-.833A2.439,2.439,0,0,0,5,32.5,2.492,2.492,0,0,0,7.5,35H10l.09.12,6.95-5.06Z" style="fill:#ed9776"/><path d="M46.74,19a2,2,0,0,1-1.3-.482L41.287,14.96a1.991,1.991,0,0,1-.225-2.791,2.648,2.648,0,0,0-1.212.851,4.014,4.014,0,0,0,.55,5.52l3.53,2.41L55,20.4V20l-1.532-1Z" style="fill:#ed9776"/><path d="M38.96,55.58A1.992,1.992,0,0,1,39,56a2.024,2.024,0,0,1-.04.43c.01.02,0,.04-.01.07a1.832,1.832,0,0,1-.09.39.3.3,0,0,1-.05.13.961.961,0,0,1-.11.28.488.488,0,0,1-.03.07c-.07.13-.15.25-.23.37a3.071,3.071,0,0,1-.29.34,2.433,2.433,0,0,1-.34.3,3.007,3.007,0,0,1-.79.43A2.681,2.681,0,0,1,36,59a3,3,0,1,1,2.96-3.42Z" style="fill:#b3f5ff"/><path d="M41,55a4,4,0,1,1-4,4c0-.06.02-.13.02-.19a2.434,2.434,0,0,0,.79-.43,1.384,1.384,0,0,0,.34-.3,2.275,2.275,0,0,0,.29-.34,2.846,2.846,0,0,0,.23-.37.488.488,0,0,0,.03-.07.961.961,0,0,0,.11-.28.3.3,0,0,0,.05-.13,1.832,1.832,0,0,0,.09-.39c.01-.03.02-.05.01-.07A2.024,2.024,0,0,0,39,56a1.992,1.992,0,0,0-.04-.42A3.943,3.943,0,0,1,41,55Z" style="fill:#81d2f5"/><path d="M36.19,47.04A2.956,2.956,0,0,1,36,46a2.981,2.981,0,0,1,4.08-2.79,3.951,3.951,0,0,1,4.96-3.06A3.485,3.485,0,0,1,48.5,37a2.629,2.629,0,0,1,.49.04A3.5,3.5,0,0,1,48.5,44a4.4,4.4,0,0,1-.51-.05A.09.09,0,0,1,48,44a4,4,0,0,1-4,4,3.952,3.952,0,0,1-2.29-.73,2.991,2.991,0,0,1-5.52-.23Z" style="fill:#96e0ff"/><path d="M36,4a2,2,0,1,1-1.85,2.77A2.915,2.915,0,0,1,33,7a3,3,0,1,1,3-3Z" style="fill:#81d2f5"/><path d="M18.47,29.02A3.935,3.935,0,0,1,19,31a4,4,0,0,1-4,4c-.06,0-.12-.02-.18-.02a2.991,2.991,0,0,1-5.31.7,2.794,2.794,0,0,1-.35-.74A2.653,2.653,0,0,1,9,34a3,3,0,0,1,2.02-2.82c0-.06-.02-.12-.02-.18a3.848,3.848,0,0,1,.12-.97,4,4,0,0,1,7.35-1.01Z" style="fill:#81d2f5"/><circle cx="6" cy="11" r="5" style="fill:#b3f5ff"/><path d="M7,13A5,5,0,0,1,2,8.025,4.993,4.993,0,1,0,11,11c0-.009,0-.017,0-.025A4.978,4.978,0,0,1,7,13Z" style="fill:#96e0ff"/><circle cx="15" cy="6" r="3" style="fill:#81d2f5"/><circle cx="12" cy="34" r="3" style="fill:#b3f5ff"/><path d="M12,35a2.99,2.99,0,0,1-2.816-2A2.962,2.962,0,0,0,9,34a3,3,0,0,0,6,0,2.962,2.962,0,0,0-.184-1A2.99,2.99,0,0,1,12,35Z" style="fill:#96e0ff"/><circle cx="44" cy="44" r="4" style="fill:#b3f5ff"/><path d="M44,46a3.992,3.992,0,0,1-3.859-3,4,4,0,1,0,7.718,0A3.992,3.992,0,0,1,44,46Z" style="fill:#96e0ff"/><path d="M8.16,37.94a2.794,2.794,0,0,0,.35.74,2.991,2.991,0,0,0,5.31-.7c.06,0,.12.02.18.02a4,4,0,0,0,4-4c0-.119-.013-.235-.023-.351A3.973,3.973,0,0,1,15,35c-.06,0-.12-.02-.18-.02a2.991,2.991,0,0,1-5.31.7c-.021-.032-.036-.066-.056-.1L8.031,36.616A3.029,3.029,0,0,0,8,37,2.653,2.653,0,0,0,8.16,37.94Z" style="fill:#f2aa8f"/><path d="M42.5,62.139a3.218,3.218,0,0,1-2.513-4.572,3.343,3.343,0,0,0,.067-2.44,4.11,4.11,0,0,0-1.093.453A1.992,1.992,0,0,1,39,56a2.024,2.024,0,0,1-.04.43c.01.02,0,.04-.01.07a1.832,1.832,0,0,1-.09.39.3.3,0,0,1-.05.13.961.961,0,0,1-.11.28.488.488,0,0,1-.03.07,2.846,2.846,0,0,1-.23.37,2.275,2.275,0,0,1-.29.34,1.384,1.384,0,0,1-.34.3,2.434,2.434,0,0,1-.79.43c0,.06-.02.13-.02.19a3.979,3.979,0,0,0,6.513,3.089A4.454,4.454,0,0,1,42.5,62.139Z" style="fill:#66b9de"/><path d="M45.524,43.487c.535.123.832-.644.812-1.132a1.781,1.781,0,0,0-.951-1.661,2.13,2.13,0,0,0-1.346-.148.988.988,0,0,0-.517.23.577.577,0,0,0-.161.575.783.783,0,0,0,.209.291L45.1,43.187A.952.952,0,0,0,45.524,43.487Z" style="fill:#fff"/><path d="M16.524,30.487c.535.123.832-.644.812-1.132a1.781,1.781,0,0,0-.951-1.661,2.13,2.13,0,0,0-1.346-.148.988.988,0,0,0-.517.23.577.577,0,0,0-.161.575.783.783,0,0,0,.209.291L16.1,30.187A.952.952,0,0,0,16.524,30.487Z" style="fill:#b0e8ff"/><path d="M50.3,39.991c.357.082.555-.429.541-.755a1.186,1.186,0,0,0-.634-1.107,1.421,1.421,0,0,0-.9-.1.665.665,0,0,0-.345.154.388.388,0,0,0-.107.384.537.537,0,0,0,.139.193l1.019,1.031A.637.637,0,0,0,50.3,39.991Z" style="fill:#b0e8ff"/><path d="M13.3,33.991c.357.082.555-.429.541-.755a1.186,1.186,0,0,0-.634-1.107,1.421,1.421,0,0,0-.9-.1.665.665,0,0,0-.345.154.388.388,0,0,0-.107.384.537.537,0,0,0,.139.193l1.019,1.031A.637.637,0,0,0,13.3,33.991Z" style="fill:#fff"/><path d="M38.989,47.427c.092.358-.406.576-.728.573a1.168,1.168,0,0,1-1.114-.6,1.475,1.475,0,0,1-.126-.906.672.672,0,0,1,.14-.354.376.376,0,0,1,.375-.122.526.526,0,0,1,.2.135l1.05,1A.648.648,0,0,1,38.989,47.427Z" style="fill:#b0e8ff"/><path d="M7.917,10.982c.712.165,1.109-.858,1.082-1.509A2.374,2.374,0,0,0,7.731,7.259a2.843,2.843,0,0,0-1.794-.2,1.32,1.32,0,0,0-.69.307.772.772,0,0,0-.215.767,1.055,1.055,0,0,0,.279.388l2.037,2.06A1.274,1.274,0,0,0,7.917,10.982Z" style="fill:#fff"/><path d="M16.3,5.991c.357.082.555-.429.541-.755A1.186,1.186,0,0,0,16.2,4.129a1.421,1.421,0,0,0-.9-.1.665.665,0,0,0-.345.154.388.388,0,0,0-.107.384.537.537,0,0,0,.139.193l1.019,1.031A.637.637,0,0,0,16.3,5.991Z" style="fill:#fff"/><path d="M34.524,4.487c.535.123.832-.644.812-1.132a1.781,1.781,0,0,0-.951-1.661,2.13,2.13,0,0,0-1.346-.148.988.988,0,0,0-.517.23.577.577,0,0,0-.161.575.783.783,0,0,0,.209.291L34.1,4.187A.952.952,0,0,0,34.524,4.487Z" style="fill:#fff"/><path d="M37.3,55.991c.357.082.555-.429.541-.755a1.186,1.186,0,0,0-.634-1.107,1.421,1.421,0,0,0-.9-.1.665.665,0,0,0-.345.154.388.388,0,0,0-.107.384.537.537,0,0,0,.139.193l1.019,1.031A.637.637,0,0,0,37.3,55.991Z" style="fill:#fff"/><path d="M43.524,59.487c.535.123.832-.644.812-1.132a1.781,1.781,0,0,0-.951-1.661,2.13,2.13,0,0,0-1.346-.148.988.988,0,0,0-.517.23.577.577,0,0,0-.161.575.783.783,0,0,0,.209.291L43.1,59.187A.952.952,0,0,0,43.524,59.487Z" style="fill:#fff"/></g></svg>