<?xml version="1.0" ?><svg viewBox="0 0 64 64" xmlns="http://www.w3.org/2000/svg"><title/><g data-name="08-Dizziness" id="_08-Dizziness"><path d="M53,63H11l14-3s2,2,7,2,7-2,7-2Z" style="fill:#34c1ad"/><polygon points="7.47 11 5 9.63 3.03 10.72 2.53 11 3 8.11 1 6.06 3.76 5.63 5 3 6.24 5.63 9 6.06 7.29 7.81 7 8.11 7.47 11" style="fill:#fedb03"/><polygon points="48.5 4.83 48.76 6.44 48.85 7 47 5.98 45.15 7 45.33 5.85 45.5 4.83 44 3.29 46.07 2.98 47 1 47.93 2.98 50 3.29 48.5 4.83" style="fill:#fedb03"/><polygon points="59 8 60.24 10.63 63 11.06 61 13.11 61.47 16 59 14.63 56.53 16 56.98 13.25 57 13.11 55 11.06 57.76 10.63 58.24 9.61 59 8" style="fill:#fedb03"/><path d="M51.88,14.99A6.574,6.574,0,0,0,46.66,12c-3.72.11-4.66,2-4.66,2s-4-5-9-5c-4,0-7,0-14,4a47.248,47.248,0,0,1-5.5,2.68A38.4,38.4,0,0,1,6,18a8.613,8.613,0,0,0,8,5s-4,2-4,8,3,8,3,8l.24-.06A7.87,7.87,0,0,1,13,37V36a3,3,0,0,1,3-3h2V28l6-5v6a11.365,11.365,0,0,0,3.99-.75,19.608,19.608,0,0,0,8-6.23L35,26a7.458,7.458,0,0,0,6-5s1,6,5,8v4h2a3,3,0,0,1,3,3v1a8.1,8.1,0,0,1-.06.99L51,38l2.43-4.05A4.018,4.018,0,0,0,54,31.89V21A10.509,10.509,0,0,0,51.88,14.99Z" style="fill:#5e3616"/><path d="M39,53.25V60s-2,2-7,2-7-2-7-2V53.25a14.875,14.875,0,0,0,14,0Z" style="fill:#f2b59d"/><path d="M39,53.25a14.875,14.875,0,0,1-14,0A13.626,13.626,0,0,1,18,44a6.72,6.72,0,0,1-4.76-5.06A7.87,7.87,0,0,1,13,37V36a3,3,0,0,1,3-3h2V28l6-5v6a11.365,11.365,0,0,0,3.99-.75,19.608,19.608,0,0,0,8-6.23L35,26a7.458,7.458,0,0,0,6-5s1,6,5,8v4h2a3,3,0,0,1,3,3v1a8.1,8.1,0,0,1-.06.99A6.887,6.887,0,0,1,46,44,13.626,13.626,0,0,1,39,53.25Z" style="fill:#f2c4b2"/><path d="M39,53.25a14.875,14.875,0,0,1-14,0V60a5.44,5.44,0,0,0,1.328.859L39,55.429Z" style="fill:#ed9776"/><path d="M46,42V35h1a2,2,0,0,1,2,2v1.117a4,4,0,0,1-2.735,3.8Z" style="fill:#f2a283"/><path d="M18,42V35H17a2,2,0,0,0-2,2v1.117a4,4,0,0,0,2.735,3.8Z" style="fill:#f2a283"/><ellipse cx="32" cy="40" rx="1" ry="2" style="fill:#d9896d"/><path d="M36,51H28s0-5,4-5S36,51,36,51Z" style="fill:#d9896d"/><path d="M46,29c-4-2-5-8-5-8a7.458,7.458,0,0,1-6,5l.99-3.98a19.608,19.608,0,0,1-8,6.23A11.365,11.365,0,0,1,24,29V23l-6,5v5H46Z" style="fill:#ad706d"/><path d="M27.99,31.25a18.89,18.89,0,0,0,7.255-5.311c-.083.019-.159.044-.245.061l.99-3.98a19.608,19.608,0,0,1-8,6.23A11.365,11.365,0,0,1,24,29v3A11.365,11.365,0,0,0,27.99,31.25Z" style="fill:#875755"/><path d="M41,24s1,6,5,8V29c-4-2-5-8-5-8a7.35,7.35,0,0,1-5.2,4.8L35,29A7.458,7.458,0,0,0,41,24Z" style="fill:#875755"/><polygon points="24 23 18 28 18 31 24 26 24 23" style="fill:#875755"/><path d="M14,23s-4,2-4,8,3,8,3,8l.24-.06A7.87,7.87,0,0,1,13,37V36a3,3,0,0,1,3-3h2V28l-5,2C11,27,14,23,14,23Z" style="fill:#3b220e"/><path d="M46,29v4h2a3,3,0,0,1,3,3V31A7.651,7.651,0,0,1,46,29Z" style="fill:#3b220e"/><path d="M42,41a5,5,0,0,0,0,10c.029,0,.055-.008.084-.008A13.266,13.266,0,0,0,46,44c.169-.043.324-.112.486-.168A4.983,4.983,0,0,0,42,41Z" style="fill:#f2a283"/><path d="M27,46a4.989,4.989,0,0,0-9.489-2.164c.162.056.32.121.489.164a13.266,13.266,0,0,0,3.916,6.992c.029,0,.055.008.084.008A5,5,0,0,0,27,46Z" style="fill:#f2a283"/><path d="M26,42.5h-.5a5.005,5.005,0,0,1-5-5,5.006,5.006,0,0,1,5-5H26a3.5,3.5,0,0,1,0,7h-.5a2,2,0,0,1,0-4H27a.5.5,0,0,1,0,1H25.5a1,1,0,0,0,0,2H26a2.5,2.5,0,0,0,0-5h-.5a4,4,0,0,0-4,4,4,4,0,0,0,4,4H26a.5.5,0,0,1,0,1Z" style="fill:#754c4a"/><path d="M40,42.5h-.5a5.005,5.005,0,0,1-5-5,5.006,5.006,0,0,1,5-5H40a3.5,3.5,0,0,1,0,7h-.5a2,2,0,0,1,0-4H41a.5.5,0,0,1,0,1H39.5a1,1,0,0,0,0,2H40a2.5,2.5,0,0,0,0-5h-.5a4,4,0,0,0-4,4,4,4,0,0,0,4,4H40a.5.5,0,0,1,0,1Z" style="fill:#754c4a"/><path d="M42,34a7.148,7.148,0,0,1-6.386-3.534,1,1,0,0,1,1.771-.929A5.14,5.14,0,0,0,42,32a1,1,0,0,1,0,2Z" style="fill:#3b220e"/><path d="M22,34a1,1,0,0,1,0-2,5.132,5.132,0,0,0,4.616-2.462,1,1,0,1,1,1.774.924A7.141,7.141,0,0,1,22,34Z" style="fill:#3b220e"/><path d="M48.911,6.892a.408.408,0,0,1-.084-.033L48.85,7,47,5.98,45.15,7l.123-.786a.478.478,0,0,1-.335.082A115.943,115.943,0,0,0,31,5.5c-9.611,0-18.414,1.041-23.549,2.784l-.291.1a.484.484,0,0,1-.112.018L7.47,11,5,9.63,3.787,10.3l0,.009a1.281,1.281,0,0,0-.263.513A.806.806,0,0,0,3.5,11c0,1.132,2.641,2.908,10.084,4.188A105.181,105.181,0,0,0,31,16.5a94.723,94.723,0,0,0,20.762-2,22.316,22.316,0,0,0,4.956-1.683L55,11.06l2.76-.43.252-.536c-.04-.039-.07-.079-.113-.118C56.611,8.807,53.417,7.709,48.911,6.892Z" style="fill:none"/><path d="M48.827,6.859a.408.408,0,0,0,.084.033c4.506.817,7.7,1.915,8.988,3.084.043.039.073.079.113.118l.228-.484.22-.466C56.568,7.536,52.341,6.5,49.089,5.908a.5.5,0,0,0-.4.107l.069.425Z" style="fill:#d4d4d4"/><path d="M7,8.11l.048.292a.484.484,0,0,0,.112-.018l.291-.1C12.586,6.541,21.389,5.5,31,5.5a115.943,115.943,0,0,1,13.938.8.478.478,0,0,0,.335-.082l.057-.364.06-.361a.49.49,0,0,0-.328-.185A116.979,116.979,0,0,0,31,4.5c-9.188,0-17.664.95-22.968,2.551L7.29,7.81Z" style="fill:#d4d4d4"/><path d="M57,13.11l-.282-.289A22.316,22.316,0,0,1,51.762,14.5,94.723,94.723,0,0,1,31,16.5a105.181,105.181,0,0,1-17.416-1.312C6.141,13.908,3.5,12.132,3.5,11a.806.806,0,0,1,.019-.177,1.281,1.281,0,0,1,.263-.513l0-.009-.757.419-.5.28.107-.66a1.991,1.991,0,0,0-.1.271A1.783,1.783,0,0,0,2.5,11c0,2.725,5.936,4.317,10.915,5.173A106.109,106.109,0,0,0,31,17.5a95.775,95.775,0,0,0,21-2.023,24.286,24.286,0,0,0,4.887-1.633l.1-.594Z" style="fill:#d4d4d4"/></g></svg>