<?xml version="1.0" ?><svg viewBox="0 0 64 64" xmlns="http://www.w3.org/2000/svg"><title/><g data-name="09-Don't touch the face" id="_09-Don_t_touch_the_face"><path d="M12,1A10.992,10.992,0,0,1,22.34,8.25,10.834,10.834,0,0,1,23,12,10.994,10.994,0,0,1,12,23c-.28,0-.55-.01-.83-.03A11,11,0,0,1,12,1Z" style="fill:#e7544c"/><path d="M43.97,57.83,43,57h1a6.5,6.5,0,0,0,5.16-2.34A8.822,8.822,0,0,0,51,49L63,60v3H50Z" style="fill:#34c1ad"/><path d="M50,63H9l2-3,14-3s2,2,7,2,7-2,7-2l4.97.83Z" style="fill:#34c1ad"/><path d="M37.78,35a2.452,2.452,0,0,0-.27.02V35A3.9,3.9,0,0,1,37,33c0-1.66.9-3,2-3s2,1.34,2,3a2.976,2.976,0,0,1-1.57,2.93l-.3-.33A1.821,1.821,0,0,0,37.78,35Z" style="fill:#5e3616"/><ellipse cx="25" cy="33" rx="2" ry="3" style="fill:#5e3616"/><path d="M35.99,19.02C35.69,19.43,30.78,26,24,26V20l-6,5v5H16a3,3,0,0,0-3,3v1a7.87,7.87,0,0,0,.24,1.94L13,36s-3-2-3-8a10.3,10.3,0,0,1,1.17-5v-.03c.28.02.55.03.83.03A10.994,10.994,0,0,0,23,12a10.834,10.834,0,0,0-.66-3.75A20.8,20.8,0,0,1,33,6c5,0,9,5,9,5s.94-1.89,4.66-2C50.69,8.89,54,13.96,54,18V28.89a4.018,4.018,0,0,1-.57,2.06L51,35l-.07-.01A6.411,6.411,0,0,0,51,34V33a3,3,0,0,0-3-3H46V26c-4-2-5-8-5-8a7.458,7.458,0,0,1-6,5Z" style="fill:#5e3616"/><path d="M39.43,35.93,45,42V38a2.019,2.019,0,0,1,2-2,2.032,2.032,0,0,1,2,2v7l2,4a8.822,8.822,0,0,1-1.84,5.66A6.5,6.5,0,0,1,44,57H43l-4-2.29L36,53l-1.16-1.27-5.41-5.91a1.67,1.67,0,0,1,.35-2.53,1.835,1.835,0,0,1,.98-.29,1.754,1.754,0,0,1,1.33.59L37,49l-5.57-6.18a1.67,1.67,0,0,1,.35-2.53,1.835,1.835,0,0,1,.98-.29,1.754,1.754,0,0,1,1.33.59L39,46h.03l-5.58-6.17a1.678,1.678,0,0,1,.33-2.54,1.835,1.835,0,0,1,.98-.29,1.754,1.754,0,0,1,1.33.59L41,43l-4.59-5.27a1.589,1.589,0,0,1,.39-2.44,1.866,1.866,0,0,1,.71-.27,2.452,2.452,0,0,1,.27-.02,1.821,1.821,0,0,1,1.35.6Z" style="fill:#f2bca7"/><path d="M39,54.71V57s-2,2-7,2-7-2-7-2V50.25a14.929,14.929,0,0,0,9.84,1.48L36,53Z" style="fill:#f2b59d"/><path d="M25,50.25A13.626,13.626,0,0,1,18,41a6.72,6.72,0,0,1-4.76-5.06A7.87,7.87,0,0,1,13,34V33a3,3,0,0,1,3-3h2V25l6-5v6c6.78,0,11.69-6.57,11.99-6.98L35,23a7.458,7.458,0,0,0,6-5s1,6,5,8v4h2a3,3,0,0,1,3,3v1a6.411,6.411,0,0,1-.07.99A7.433,7.433,0,0,1,49,39.22V38a2.032,2.032,0,0,0-2-2,2.019,2.019,0,0,0-2,2v4l-5.57-6.07A2.976,2.976,0,0,0,41,33c0-1.66-.9-3-2-3s-2,1.34-2,3a3.9,3.9,0,0,0,.51,2v.02a1.866,1.866,0,0,0-.71.27,1.589,1.589,0,0,0-.39,2.44L41,43l-4.91-5.41A1.754,1.754,0,0,0,34.76,37a1.835,1.835,0,0,0-.98.29,1.678,1.678,0,0,0-.33,2.54L39.03,46H39l-4.91-5.41A1.754,1.754,0,0,0,32.76,40a1.835,1.835,0,0,0-.98.29,1.67,1.67,0,0,0-.35,2.53L37,49l-4.91-5.41A1.754,1.754,0,0,0,30.76,43a1.835,1.835,0,0,0-.98.29,1.67,1.67,0,0,0-.35,2.53l5.41,5.91A14.929,14.929,0,0,1,25,50.25ZM27,33c0-1.66-.9-3-2-3s-2,1.34-2,3,.9,3,2,3S27,34.66,27,33Z" style="fill:#f2c4b2"/><path d="M39,54.71,36,53l-1.16-1.27a14.865,14.865,0,0,1-5.874-.047L30.84,53.73,32,55l3,1.71,2.3,1.319A5.9,5.9,0,0,0,39,57Z" style="fill:#ed9776"/><path d="M48.41,36.6a1.9,1.9,0,0,1,.2.233A3.989,3.989,0,0,0,49,35.117V34a2,2,0,0,0-2-2H46v4.284a1.935,1.935,0,0,1,2.41.316Z" style="fill:#f2a283"/><path d="M18,39V32H17a2,2,0,0,0-2,2v1.117a4,4,0,0,0,2.735,3.8Z" style="fill:#f2a283"/><path d="M27.99,28.25a18.89,18.89,0,0,0,7.255-5.311c-.083.019-.159.044-.245.061l.99-3.98a19.608,19.608,0,0,1-8,6.23A11.365,11.365,0,0,1,24,26v3A11.365,11.365,0,0,0,27.99,28.25Z" style="fill:#f2a283"/><path d="M41,21s1,6,5,8V26c-4-2-5-8-5-8a7.35,7.35,0,0,1-5.2,4.8L35,26A7.458,7.458,0,0,0,41,21Z" style="fill:#f2a283"/><polygon points="24 20 18 25 18 28 24 23 24 20" style="fill:#f2a283"/><path d="M12,23c-.272,0-.535-.01-.806-.029A10.277,10.277,0,0,0,10,28c0,6,3,8,3,8l.24-.06A7.87,7.87,0,0,1,13,34V33a3,3,0,0,1,3-3h2V25l-5,2a4.769,4.769,0,0,1-.44-4.028C12.373,22.981,12.189,23,12,23Z" style="fill:#3b220e"/><path d="M46,26v4h2a3,3,0,0,1,3,3V28A7.651,7.651,0,0,1,46,26Z" style="fill:#3b220e"/><path d="M34.84,51.73l0,0A14.861,14.861,0,0,1,25,50.25V57a5.44,5.44,0,0,0,1.328.859l10.387-4.451L36,53Z" style="fill:#ed9776"/><path d="M25,57,11,60,9,63h6l12.8-4.571A7.13,7.13,0,0,1,25,57Z" style="fill:#21abab"/><path d="M39,57a6.592,6.592,0,0,1-2.254,1.249l.331.048a18.215,18.215,0,0,1,8.806,3.81L47,63h3l-6.03-5.17Z" style="fill:#21abab"/><path d="M39.959,57.206,39,57s-2,2-7,2-7-2-7-2l-.96.206a.975.975,0,0,0,.253.5C24.387,57.8,26.647,60,32,60s7.613-2.2,7.707-2.293A.966.966,0,0,0,39.959,57.206Z" style="fill:#e3e3e3"/><path d="M22.34,8.25A11,11,0,1,0,11.17,22.97c.28.02.55.03.83.03A10.994,10.994,0,0,0,23,12,10.834,10.834,0,0,0,22.34,8.25ZM12,22A10,10,0,1,1,22,12,10,10,0,0,1,12,22Z" style="fill:#d4d4d4"/><path d="M40.908,26.519c.021-.006.041-.011.062-.015.3-.054.53.423.53.746,0,.091-.034,2.25-3,2.25s-3-2.159-3-2.25a.79.79,0,0,1,.337-.675c.218-.133.43-.009.6.2.083.1.147.228.235.324a1.124,1.124,0,0,0,.3.213,4.459,4.459,0,0,0,.829.377,2.394,2.394,0,0,0,2.229-.491A3.166,3.166,0,0,1,40.908,26.519Z" style="fill:#5e3616"/><path d="M26.908,29.481c.021.006.041.011.062.015.3.054.53-.423.53-.746,0-.091-.034-2.25-3-2.25s-3,2.159-3,2.25a.79.79,0,0,0,.337.675c.218.133.43.009.6-.2.083-.1.147-.228.235-.324a1.124,1.124,0,0,1,.3-.213,4.459,4.459,0,0,1,.829-.377,2.394,2.394,0,0,1,2.229.491A3.166,3.166,0,0,0,26.908,29.481Z" style="fill:#5e3616"/><ellipse cx="32" cy="37" rx="1" ry="2" style="fill:#d9896d"/><path d="M33.45,39.83,39,46c.006-.006.007-.013.013-.019Z" style="fill:#f2b59d"/><path d="M39.013,45.981c-.006.006-.007.013-.013.019h.03Z" style="fill:#f2b59d"/><path d="M48.775,51.552A5.022,5.022,0,0,1,45,54.712a4.409,4.409,0,0,1-3.3-.458L36,51l-6.526-7.459a1.667,1.667,0,0,0-.044,2.279l5.41,5.91L36,53l3,1.71L43,57h1a6.5,6.5,0,0,0,5.16-2.34A8.822,8.822,0,0,0,51,49,4.351,4.351,0,0,0,48.775,51.552Z" style="fill:#f2b096"/><path d="M41.069,40.936l-4.644-5.308a1.525,1.525,0,0,0-.015,2.1L41,43A1.511,1.511,0,0,0,41.069,40.936Z" style="fill:#f2b096"/><path d="M39.069,43.936l-5.593-6.393a1.678,1.678,0,0,0-.026,2.287l5.563,6.151A1.508,1.508,0,0,0,39.069,43.936Z" style="fill:#f2b096"/><path d="M37.709,48.646a1.041,1.041,0,0,0,.27-1.667l-6.471-6.471a1.665,1.665,0,0,0-.109,2.269l5.071,5.634A1.041,1.041,0,0,0,37.709,48.646Z" style="fill:#f2b096"/><path d="M47,41.586V36a2.019,2.019,0,0,0-2,2v4l.293.293A1,1,0,0,0,47,41.586Z" style="fill:#f2b096"/><path d="M36,53l-1.16-1.27a14.46,14.46,0,0,1-1.717.217l.717.783L35,54l3,1.71,1,.572V54.71Z" style="fill:#ed9776"/><path d="M29.43,45.82a1.667,1.667,0,0,1-.332-1.675,1.82,1.82,0,0,0-.318.145,1.67,1.67,0,0,0-.35,2.53l4.693,5.127a14.46,14.46,0,0,0,1.717-.217Z" style="fill:#ed9776"/><path d="M41,43l-4.59-5.27a1.444,1.444,0,0,1-.3-1.6,1.924,1.924,0,0,0-.311.156,1.785,1.785,0,0,0-.644.755,1.716,1.716,0,0,1,.934.545Z" style="fill:#ed9776"/><path d="M34.09,40.59,39,46h.03l-5.58-6.17a1.678,1.678,0,0,1-.342-1.689,1.858,1.858,0,0,0-.328.149,1.674,1.674,0,0,0-.7,1.864A1.8,1.8,0,0,1,32.76,40,1.754,1.754,0,0,1,34.09,40.59Z" style="fill:#ed9776"/><path d="M44,39v1.91L45,42V38a1.952,1.952,0,0,1,.185-.818A2.019,2.019,0,0,0,44,39Z" style="fill:#ed9776"/><path d="M32.09,43.59,37,49l-5.57-6.18a1.667,1.667,0,0,1-.332-1.675,1.82,1.82,0,0,0-.318.145,1.67,1.67,0,0,0-.714,1.87A1.788,1.788,0,0,1,30.76,43,1.754,1.754,0,0,1,32.09,43.59Z" style="fill:#ed9776"/><path d="M27,43a4.989,4.989,0,0,0-9.489-2.164c.162.056.32.121.489.164a13.266,13.266,0,0,0,3.916,6.992c.029,0,.055.008.084.008A5,5,0,0,0,27,43Z" style="fill:#f2a283"/><path d="M13.414,12l5.293-5.293a1,1,0,1,0-1.414-1.414L12,10.586,6.707,5.293A1,1,0,0,0,5.293,6.707L10.586,12,5.293,17.293a1,1,0,1,0,1.414,1.414L12,13.414l5.293,5.293a1,1,0,0,0,1.414-1.414Z" style="fill:#e3e3e3"/></g></svg>