<?xml version="1.0" ?><svg viewBox="0 0 64 64" xmlns="http://www.w3.org/2000/svg"><title/><g data-name="22-Cough" id="_22-Cough"><path d="M48,31s3,0,3,2-3,3-3,3Z" style="fill:#f2a283"/><path d="M51,63H27a3,3,0,0,1,3-3l18-6h3Z" style="fill:#34c1ad"/><path d="M41.65,28H50.2A3.859,3.859,0,0,1,54,31.65V34c0,1.77-.38,3.06-1.9,4.04L48,40V54L30,60V52.88a14.994,14.994,0,0,1-9.62-5.01L25,46a2.006,2.006,0,0,0-2-2H17.66A20.03,20.03,0,0,1,16,40l-2.29-1.14A3.1,3.1,0,0,1,12,36.09v-.04a3.125,3.125,0,0,1,.62-1.86C13.75,32.69,16,29.5,16,28V17a6.83,6.83,0,0,0,4-4c6,0,12.76,15,20,15ZM48,31v5s3-1,3-3S48,31,48,31Z" style="fill:#f2c4b2"/><path d="M51,47.44V48H48V40l4.1-1.96C53.62,37.06,54,35.77,54,34V31.65A3.859,3.859,0,0,0,50.2,28H40c-7.24,0-14-15-20-15a6.83,6.83,0,0,1-4,4V16A14.613,14.613,0,0,1,20.6,5.4,16.053,16.053,0,0,1,31.71,1h9.43C51.56,1,60,9.06,60,19v8c0,3-1.39,9.56-5,13l-1.56,1.56A8.328,8.328,0,0,0,51,47.44Z" style="fill:#5e3616"/><path d="M21,17s3,1,4,3c.944,1.888,4.57,7.335,14.228,7.939C32.279,26.945,25.786,13,20,13a6.83,6.83,0,0,1-4,4v3.735C17.511,20.272,20.282,19.153,21,17Z" style="fill:#f2a283"/><path d="M39.793,48.294A37.565,37.565,0,0,1,30,53v7l13-4.333V49.886A2,2,0,0,0,39.793,48.294Z" style="fill:#f2a283"/><path d="M5,50.667a1,1,0,0,1-.316-1.948l8-2.667a1,1,0,1,1,.632,1.9l-8,2.667A1,1,0,0,1,5,50.667Z" style="fill:#34c1ad"/><path d="M5,57.667a1,1,0,0,1-.317-1.948l8-2.667a1,1,0,1,1,.632,1.9l-8,2.667A1,1,0,0,1,5,57.667Z" style="fill:#34c1ad"/><path d="M9,53a1,1,0,0,1-.315-1.949l4-1.33a1,1,0,1,1,.63,1.9l-4,1.33A1.017,1.017,0,0,1,9,53Z" style="fill:#34c1ad"/><path d="M17,50.333a1,1,0,0,1-.316-1.949l1-.333a1,1,0,1,1,.632,1.9l-1,.333A1.028,1.028,0,0,1,17,50.333Z" style="fill:#34c1ad"/><path d="M5,46.667a1,1,0,0,1-.315-1.949l3-1a1,1,0,1,1,.63,1.9l-3,1A1.024,1.024,0,0,1,5,46.667Z" style="fill:#34c1ad"/><path d="M12,44.333a1,1,0,0,1-.316-1.949l1-.333a1,1,0,0,1,.632,1.9l-1,.333A1.028,1.028,0,0,1,12,44.333Z" style="fill:#34c1ad"/><path d="M25,32.33a1,1,0,0,1-.554-.168l-5-3.33a1,1,0,0,1,0-1.664l5-3.333a1,1,0,0,1,1.11,1.664L21.8,28l3.747,2.5A1,1,0,0,1,25,32.33Z" style="fill:#5e3616"/><path d="M25.211,19.519c.027-.006.055-.011.082-.015.4-.054.707.423.707.746,0,.091-.045,2.25-4,2.25s-4-2.159-4-2.25a.754.754,0,0,1,.449-.675.715.715,0,0,1,.8.2c.111.1.2.228.314.324a1.562,1.562,0,0,0,.4.213,6.986,6.986,0,0,0,1.105.377,4.022,4.022,0,0,0,2.971-.491A4.327,4.327,0,0,1,25.211,19.519Z" style="fill:#452810"/><path d="M51,24H49C32.4,23.126,27.248,6.217,26.214,1.965A15.849,15.849,0,0,0,20.6,5.4,14.613,14.613,0,0,0,16,16v1a6.83,6.83,0,0,0,4-4c6,0,12.76,15,20,15H50.2A3.859,3.859,0,0,1,54,31.65V27A3,3,0,0,0,51,24Z" style="fill:#452810"/><path d="M50.91,38.609,48,40v8h3v-.56a8.31,8.31,0,0,1,1.671-4.977A3.919,3.919,0,0,1,50.91,38.609Z" style="fill:#452810"/><path d="M49,61H37.789a1.774,1.774,0,0,1-.96-3.276L30,60a3,3,0,0,0-3,3H51V59A2,2,0,0,1,49,61Z" style="fill:#107c82"/></g></svg>